<?xml version="1.0" standalone="no"?>
<!DOCTYPE svg PUBLIC "-//W3C//DTD SVG 20010904//EN"
 "http://www.w3.org/TR/2001/REC-SVG-20010904/DTD/svg10.dtd">
<svg version="1.0" xmlns="http://www.w3.org/2000/svg"
 width="600pt" height="600pt" viewBox="0 0 600 600"
 preserveAspectRatio="xMidYMid meet">

<g transform="translate(0.000000,625.000000) scale(0.100000,-0.100000)"
fill="#000000" stroke="none">
<path d="M840 5493 c-242 -3 -255 -4 -277 -24 -30 -29 -38 -71 -19 -108 9 -16
22 -33 28 -38 7 -4 123 -10 257 -13 l244 -5 123 -190 c68 -104 142 -219 163
-255 l40 -65 201 -1169 c195 -1143 200 -1170 182 -1190 -10 -12 -170 -186
-355 -389 -326 -355 -337 -369 -337 -408 0 -29 7 -47 25 -64 24 -25 25 -25
229 -25 l206 0 -36 -65 c-45 -82 -64 -152 -64 -240 0 -219 144 -410 354 -470
81 -24 229 -17 309 14 131 51 245 174 287 307 40 132 20 297 -49 406 l-31 48
1051 0 c578 0 1049 -3 1047 -7 -1 -5 -20 -42 -40 -83 -137 -275 5 -596 301
-684 75 -22 204 -21 280 3 159 49 284 185 327 354 31 117 4 275 -61 372 -14
20 -25 38 -25 40 0 3 103 5 229 5 228 0 230 0 258 24 22 19 28 32 28 66 0 34
-6 47 -28 66 l-28 24 -422 0 c-232 0 -1191 0 -2130 0 -1020 0 -1707 4 -1705 9
2 5 122 140 268 300 l265 290 1548 0 c1691 1 1591 -3 1615 58 7 15 16 48 21
73 6 25 50 209 100 410 49 201 142 581 206 845 64 264 152 625 195 803 67 273
77 327 68 352 -22 64 133 60 -2110 60 l-2043 0 -160 251 c-88 138 -171 264
-185 280 -31 36 -27 36 -350 32z m1585 -755 c4 -10 45 -563 45 -600 0 -4 -173
-8 -384 -8 l-384 0 -6 28 c-14 71 -96 561 -96 575 0 16 36 17 410 17 319 0
412 -3 415 -12z m1019 -58 c-1 -36 -5 -174 -9 -308 l-7 -242 -387 2 -386 3
-20 303 c-11 167 -18 306 -16 308 3 2 189 3 415 2 l411 -3 -1 -65z m1019 63
c2 -6 -70 -541 -83 -610 0 -2 -174 -3 -386 -3 l-386 0 6 93 c3 50 9 187 12
302 4 116 8 213 11 218 2 4 188 7 413 7 225 0 411 -3 413 -7z m1017 -5 c0 -7
-32 -147 -72 -310 l-72 -298 -383 0 c-211 0 -383 3 -383 6 0 48 86 601 94 606
6 4 192 8 414 8 315 0 402 -3 402 -12z m-2996 -830 c6 -39 36 -497 36 -550 l0
-38 -339 0 -339 0 -6 28 c-3 15 -26 146 -51 292 -25 146 -47 273 -49 283 -4
16 19 17 369 17 l374 0 5 -32z m932 -75 c-3 -60 -9 -199 -12 -310 l-7 -203
-343 0 c-269 0 -344 3 -344 13 0 6 -9 138 -20 292 -11 154 -20 288 -20 298 0
16 25 17 376 17 l377 0 -7 -107z m934 90 c0 -10 -18 -146 -40 -303 -22 -157
-40 -288 -40 -292 0 -5 -156 -8 -346 -8 l-346 0 6 73 c3 39 9 179 12 310 l7
237 373 0 c350 0 374 -1 374 -17z m937 5 c-2 -7 -37 -147 -77 -310 l-72 -298
-339 0 -339 0 0 23 c0 12 18 148 40 302 22 154 40 283 40 288 0 4 169 7 376 7
297 0 375 -3 371 -12z m-2752 -800 c2 -7 11 -119 19 -248 9 -129 19 -263 22
-298 l6 -62 -303 2 -303 3 -52 300 c-28 165 -49 303 -47 308 2 4 150 7 329 7
251 0 326 -3 329 -12z m852 -120 c-4 -73 -10 -213 -13 -310 l-7 -178 -301 0
-302 0 -20 303 c-11 166 -19 305 -17 310 2 4 153 7 335 7 l331 0 -6 -132z
m853 125 c0 -5 -18 -144 -42 -310 l-42 -303 -304 0 -304 0 6 48 c3 26 8 157
11 292 4 135 9 253 11 263 5 16 30 17 335 17 181 0 329 -3 329 -7z m850 -5
c-1 -7 -34 -146 -73 -308 l-73 -295 -302 -3 -302 -2 5 22 c2 13 20 138 40 278
19 140 37 270 40 288 l6 32 329 0 c258 0 330 -3 330 -12z m-3027 -1610 c68
-29 142 -114 163 -186 42 -144 -27 -296 -164 -364 -69 -34 -188 -32 -257 4
-218 114 -229 411 -20 534 81 47 184 51 278 12z m2873 2 c194 -83 238 -348 82
-497 -83 -80 -231 -104 -333 -53 -221 109 -234 420 -22 536 85 46 186 51 273
14z"/>
</g>
</svg>
