<?xml version="1.0" standalone="no"?>
<!DOCTYPE svg PUBLIC "-//W3C//DTD SVG 20010904//EN"
 "http://www.w3.org/TR/2001/REC-SVG-20010904/DTD/svg10.dtd">
<svg version="1.0" xmlns="http://www.w3.org/2000/svg"
 width="5000.000000pt" height="4000.000000pt" viewBox="0 0 5000.000000 4000.000000"
 preserveAspectRatio="xMidYMid meet">

<g transform="translate(0.000000,4000.000000) scale(0.100000,-0.100000)"
fill="#000000" stroke="none">
<path d="M32719 28848 c-1076 -1320 -1976 -2422 -2709 -3319 -124 -152 -362
-444 -530 -650 -168 -205 -355 -434 -416 -509 -60 -74 -391 -479 -734 -900
-530 -650 -744 -911 -1265 -1550 -34 -41 -172 -210 -306 -375 -135 -165 -667
-817 -1183 -1449 l-938 -1149 10 -36 c5 -20 219 -715 475 -1546 256 -830 487
-1580 513 -1665 26 -85 50 -158 54 -163 5 -6 157 264 511 908 36 66 187 341
336 610 624 1131 888 1611 1398 2535 295 536 572 1038 615 1115 43 77 308 559
590 1070 282 512 824 1495 1205 2185 381 690 959 1739 1285 2330 326 591 663
1203 750 1360 87 157 404 733 705 1280 302 547 553 1000 558 1005 7 7 8 7 5 0
-6 -10 -406 -858 -1783 -3780 -648 -1374 -2958 -6275 -3872 -8215 -295 -624
-588 -1247 -653 -1385 -65 -137 -269 -572 -455 -965 -185 -393 -500 -1061
-700 -1485 -200 -423 -592 -1257 -873 -1852 l-510 -1082 440 -918 c242 -505
443 -921 446 -925 4 -4 185 453 402 1015 217 562 499 1292 626 1622 128 330
435 1127 684 1770 249 644 555 1436 680 1760 125 325 1016 2631 1980 5125
2421 6267 3018 7811 3342 8650 154 399 284 735 289 748 5 12 7 22 5 22 -2 0
-441 -537 -977 -1192z"/>
<path d="M13520 29984 c0 -7 -21 28 485 -824 230 -388 581 -979 780 -1315 199
-335 441 -743 537 -905 96 -162 577 -972 1068 -1800 858 -1446 1037 -1747
1415 -2385 95 -159 409 -688 697 -1175 289 -487 970 -1634 1513 -2550 544
-916 1023 -1723 1065 -1795 77 -130 546 -921 1394 -2350 248 -418 683 -1150
966 -1627 283 -478 517 -868 520 -868 9 0 1385 2504 1382 2514 -4 14 -102 232
-1147 2551 -488 1084 -1296 2877 -1795 3985 -499 1108 -1101 2445 -1338 2970
-236 525 -739 1641 -1117 2480 -378 839 -807 1793 -955 2120 -147 327 -306
681 -353 785 l-86 190 -2515 3 c-1384 1 -2516 -1 -2516 -4z"/>
</g>
</svg>
